<svg version="1.2" xmlns="http://www.w3.org/2000/svg" viewBox="0 0 128 128" width="128" height="128"><style>.a{fill:#ca3a3a;stroke:#ca3a3a;stroke-miterlimit:10;stroke-width:7}</style><path class="a" d="m38.5 120.6q-13.6 0-13.6-10 0-5.4 3.2-5.4 1 0 1 1.6 0 0.3 0 0.8 0 0.5-0.2 1.3-0.1 0.8-0.1 1.4 0 0.7 0 1 0 6.7 8.8 6.7 14.4 0 21.7-23.2 1.1-3.5 2.9-12.2 1.8-8.6 4-22.7 2.7-15.7 6.7-26.7 4-11.2 9.6-17.6-3.5-1.3-8.1-2.1-4.5-0.8-9.8-0.8-12.5 0-22.4 5.3-9.8 5.3-15.5 14.4-5.6 9-5.6 20.6 0 6.1 2.1 11.6 2 5.4 6 8.8 4 3.3 9.6 3.3 5.6 0 9.8-3.2 4.3-3.2 6.6-8.3 2.4-5.3 2.4-11.5 0-6.3-2.6-11.1-2.6-4.9-8.5-4.9-4.5 0-7.5 3.2-2.9 3-2.9 7.5 0 4.6 3.4 5 0.9 0 1.6-0.5 0.8 0 0.8 0.6 0 1.5-2.7 1.5-2.1 0-4-2-1.8-1.9-1.8-4.4 0-5.2 4.2-9 4.1-4 9.2-4 5 0 8.2 2.9 3.2 2.9 4.8 7.3 1.6 4.5 1.6 9.2 0 10.8-7 17.7-6.9 6.7-17.8 6.7-6.9 0-11.8-3.6-4.8-3.9-7.4-9.8-2.4-6.1-2.4-12.8 0-13.4 6.7-22.9 6.7-9.4 17.9-14.4 11.2-5.1 24.5-5.1 11.7 0 20.3 3 6.6-6.5 13.6-6.5 2.6 0 2.6 0.9 0 0.8-1.8 0.8-6.4 0-11 5.6 24.3 8.8 24.3 27.9 0 6.7-3.5 12.1-3.5 5.3-9.4 9.3-5.8 3.9-12.8 5.9-6.9 2.1-13.6 2.3-2.4 18.4-7.6 28.3-6.7 13.3-21.4 19.2-2.4 1-5.3 1zm34.3-50.4q9.2-0.5 16.6-3.7 7.4-3.2 11.7-9.1 4.3-6.1 4.3-15.1 0-17.4-19.4-25.4-9.7 14.5-13.2 53.3z"/></svg>